<svg xmlns="http://www.w3.org/2000/svg" width="92.222" height="92.862" viewBox="0 0 92.222 92.862"><g transform="translate(-914.125 -105.98)"><path d="M243.452,55.818a46.713,46.713,0,0,1-9.383,28.088,46.209,46.209,0,0,1-11.563,10.8,45.262,45.262,0,0,1-25.117,7.547,46.432,46.432,0,0,1-.095-92.862,45.894,45.894,0,0,1,36.68,18.248A46.463,46.463,0,0,1,243.452,55.818Z" transform="translate(762.895 96.593)" fill="#e3dbef"/><g transform="translate(941.1 127.498)"><path d="M63.86,26.8a.83.83,0,0,0-.243-.587l-9.965-9.965A.83.83,0,0,0,53.065,16H28.152A4.157,4.157,0,0,0,24,20.152V61.673a4.157,4.157,0,0,0,4.152,4.152H63.03a.83.83,0,0,0,.83-.83V62.71q.174-.068.347-.144l1.616,1.616a.83.83,0,0,0,1.175,0l3.523-3.523a.83.83,0,0,0,0-1.175L68.9,57.868q.076-.172.144-.347h2.285a.83.83,0,0,0,.83-.83V51.708a.83.83,0,0,0-.83-.83H69.049q-.068-.174-.144-.347l1.616-1.616a.83.83,0,0,0,0-1.175L67,44.217a.83.83,0,0,0-1.175,0l-1.616,1.616q-.172-.076-.347-.144V26.8ZM53.9,18.835l7.13,7.13H56.387A2.494,2.494,0,0,1,53.9,23.474ZM28.152,64.165a2.494,2.494,0,0,1-2.491-2.491V20.152a2.494,2.494,0,0,1,2.491-2.491H52.234v5.813a4.157,4.157,0,0,0,4.152,4.152H62.2V42.574H58.047a.83.83,0,0,0-.83.83v2.285q-.174.068-.347.144l-1.616-1.616a.83.83,0,0,0-1.175,0L50.556,47.74a.83.83,0,0,0,0,1.175l1.616,1.616q-.076.172-.144.347H49.743a.83.83,0,0,0-.83.83v4.983a.83.83,0,0,0,.83.83h2.285q.068.174.144.347l-1.616,1.616a.83.83,0,0,0,0,1.175l3.506,3.506Zm29.065,0H55.271l1.6-1.6q.172.076.347.144Zm6.777-16.592a.83.83,0,0,0,.972-.149l1.445-1.446,2.349,2.349-1.445,1.445a.83.83,0,0,0-.149.972,7.44,7.44,0,0,1,.5,1.213.83.83,0,0,0,.792.581H70.5V55.86H68.462a.83.83,0,0,0-.792.581,7.439,7.439,0,0,1-.5,1.212.83.83,0,0,0,.149.972l1.446,1.446-2.349,2.349-1.445-1.445a.83.83,0,0,0-.972-.149,7.441,7.441,0,0,1-1.213.5.83.83,0,0,0-.581.792v2.042H58.878V62.123a.83.83,0,0,0-.581-.792,7.439,7.439,0,0,1-1.212-.5.83.83,0,0,0-.972.149l-1.446,1.446-2.349-2.349,1.445-1.445a.83.83,0,0,0,.149-.972,7.44,7.44,0,0,1-.5-1.213.83.83,0,0,0-.792-.581H50.574V52.539h2.042a.83.83,0,0,0,.792-.581,7.44,7.44,0,0,1,.5-1.212.83.83,0,0,0-.149-.972l-1.446-1.446,2.349-2.349,1.445,1.445a.83.83,0,0,0,.972.149,7.441,7.441,0,0,1,1.213-.5.83.83,0,0,0,.581-.792V44.234H62.2v2.042a.83.83,0,0,0,.581.792A7.44,7.44,0,0,1,63.994,47.573Z" transform="translate(-24 -16)" fill="#552482"/><path d="M152,160.83a.83.83,0,0,0,.83.83h19.93a.83.83,0,0,0,0-1.661H152.83A.83.83,0,0,0,152,160.83Z" transform="translate(-138.713 -145.052)" fill="#552482"/><path d="M72.83,209.661H89.439a.83.83,0,1,0,0-1.661H72.83a.83.83,0,0,0,0,1.661Z" transform="translate(-67.018 -188.07)" fill="#552482"/><path d="M209.135,256h-8.3a.83.83,0,1,0,0,1.661h8.3a.83.83,0,1,0,0-1.661Z" transform="translate(-181.731 -231.087)" fill="#552482"/><path d="M226.491,304H224.83a.83.83,0,1,0,0,1.661h1.661a.83.83,0,0,0,0-1.661Z" transform="translate(-203.239 -274.105)" fill="#552482"/><path d="M72.83,305.661H85.287a.83.83,0,1,0,0-1.661H72.83a.83.83,0,0,0,0,1.661Z" transform="translate(-67.018 -274.105)" fill="#552482"/><path d="M72.83,161.661h4.983a.83.83,0,1,0,0-1.661H72.83a.83.83,0,0,0,0,1.661Z" transform="translate(-67.018 -145.052)" fill="#552482"/><path d="M273.135,208h-8.3a.83.83,0,0,0,0,1.661h8.3a.83.83,0,1,0,0-1.661Z" transform="translate(-239.087 -188.07)" fill="#552482"/><path d="M72.83,257.661H82.8a.83.83,0,1,0,0-1.661H72.83a.83.83,0,1,0,0,1.661Z" transform="translate(-67.018 -231.087)" fill="#552482"/><path d="M188.152,400H184.83a.83.83,0,1,0,0,1.661h3.322a.83.83,0,0,0,0-1.661Z" transform="translate(-167.392 -360.14)" fill="#552482"/><path d="M81.135,400h-8.3a.83.83,0,1,0,0,1.661h8.3a.83.83,0,1,0,0-1.661Z" transform="translate(-67.018 -360.14)" fill="#552482"/><path d="M72.83,353.661h4.983a.83.83,0,0,0,0-1.661H72.83a.83.83,0,0,0,0,1.661Z" transform="translate(-67.018 -317.122)" fill="#552482"/><path d="M72.83,113.661H82.8a.83.83,0,1,0,0-1.661H72.83a.83.83,0,0,0,0,1.661Z" transform="translate(-67.018 -102.035)" fill="#552482"/><path d="M159.474,352H152.83a.83.83,0,0,0,0,1.661h6.643a.83.83,0,0,0,0-1.661Z" transform="translate(-138.713 -317.122)" fill="#552482"/><path d="M344,355.322A3.322,3.322,0,1,0,347.322,352,3.322,3.322,0,0,0,344,355.322Zm4.983,0a1.661,1.661,0,1,1-1.661-1.661A1.661,1.661,0,0,1,348.983,355.322Z" transform="translate(-310.783 -317.122)" fill="#552482"/></g></g></svg>