<svg id="award" xmlns="http://www.w3.org/2000/svg" width="17.174" height="17.052" viewBox="0 0 17.174 17.052">
  <path id="Path_15622" data-name="Path 15622" d="M11.647,5.1a.463.463,0,0,0-.9,0A1.606,1.606,0,0,1,9.225,6.231a.459.459,0,0,0-.448.345.507.507,0,0,0,.177.577,1.657,1.657,0,0,1,.577,1.82.507.507,0,0,0,.177.577.429.429,0,0,0,.542,0,1.576,1.576,0,0,1,1.9,0,.429.429,0,0,0,.542,0,.507.507,0,0,0,.177-.577,1.657,1.657,0,0,1,.577-1.82.507.507,0,0,0,.177-.577.459.459,0,0,0-.448-.345A1.606,1.606,0,0,1,11.647,5.1Z" transform="translate(-2.507 -1.36)" fill="#7e55a4"/>
  <path id="Path_15623" data-name="Path 15623" d="M3.25,6.842a6.592,6.592,0,1,1,13.117.948,6.9,6.9,0,0,1-.328.738A6.972,6.972,0,0,1,3.318,7.79a6.642,6.642,0,0,1-.068-.948Zm5.066-3.2a1.593,1.593,0,0,1,3.052,0,.477.477,0,0,0,.448.345,1.643,1.643,0,0,1,.949,2.956.527.527,0,0,0-.177.577,1.636,1.636,0,0,1-.577,1.82,1.558,1.558,0,0,1-1.9,0,.446.446,0,0,0-.542,0,1.558,1.558,0,0,1-1.9,0A1.636,1.636,0,0,1,7.1,7.525a.527.527,0,0,0-.177-.577,1.643,1.643,0,0,1,.949-2.956.477.477,0,0,0,.448-.345Z" transform="translate(-1.151 -0.25)" fill="#7e55a4" fill-rule="evenodd"/>
  <path id="Path_15624" data-name="Path 15624" d="M2.573,13.265c-.067.113-.137.235-.213.366L.985,16.014a6.991,6.991,0,0,0-.417.791.981.981,0,0,0,.046.957.966.966,0,0,0,.889.368,6.752,6.752,0,0,0,.876-.137l.6-.117a6.244,6.244,0,0,1,.672-.112.535.535,0,0,1,.12,0l.013,0h0l.009.01a.537.537,0,0,1,.061.1,6.25,6.25,0,0,1,.239.638l.2.575a6.762,6.762,0,0,0,.319.827.966.966,0,0,0,.763.586.981.981,0,0,0,.852-.438,6.993,6.993,0,0,0,.476-.757l1.348-2.335c.08-.139.154-.266.22-.383q-.348-.038-.687-.105a8.1,8.1,0,0,1-5.006-3.225Z" transform="translate(-0.463 -3.46)" fill="#7e55a4"/>
  <path id="Path_15625" data-name="Path 15625" d="M18.691,13.476l.106.183,1.39,2.407a6.992,6.992,0,0,1,.417.791.981.981,0,0,1-.046.957.966.966,0,0,1-.889.368,6.754,6.754,0,0,1-.876-.137l-.6-.117a6.246,6.246,0,0,0-.672-.112.535.535,0,0,0-.12,0l-.013,0h0l-.009.01a.533.533,0,0,0-.061.1,6.238,6.238,0,0,0-.239.638l-.2.575a6.748,6.748,0,0,1-.319.827.966.966,0,0,1-.763.586.981.981,0,0,1-.852-.438,6.978,6.978,0,0,1-.476-.757L13.124,17.03c-.076-.131-.145-.252-.209-.364q.336-.028.664-.084a8.1,8.1,0,0,0,5.112-3.108Z" transform="translate(-3.534 -3.512)" fill="#7e55a4"/>
</svg>
