<svg id="strategy" xmlns="http://www.w3.org/2000/svg" width="14.314" height="18.096" viewBox="0 0 14.314 18.096">
  <path id="Path_15628" data-name="Path 15628" d="M66.185,60H65v1.1a1.592,1.592,0,0,1-1.59,1.59H57.9a1.592,1.592,0,0,1-1.59-1.59V60H55.129A1.631,1.631,0,0,0,53.5,61.629V74.346a1.631,1.631,0,0,0,1.629,1.629H66.185a1.631,1.631,0,0,0,1.629-1.629V61.629A1.631,1.631,0,0,0,66.185,60ZM55.776,64.687a.53.53,0,0,1,.75-.75l.464.465.464-.465a.53.53,0,0,1,.75.75l-.465.464.465.464a.53.53,0,0,1-.75.75L56.99,65.9l-.464.465a.53.53,0,0,1-.75-.75l.465-.464ZM63.962,74.3a1.577,1.577,0,1,1,1.577-1.577A1.578,1.578,0,0,1,63.962,74.3Zm-.6-5.005h-5.39A1.274,1.274,0,0,0,56.7,70.568v.353a1.274,1.274,0,0,0,1.272,1.272h2.156a.53.53,0,1,1,0,1.06H57.971a2.335,2.335,0,0,1-2.333-2.333v-.353a2.335,2.335,0,0,1,2.333-2.333h5.39a1.272,1.272,0,1,0,0-2.545H59.774a.53.53,0,1,1,0-1.06h3.587a2.333,2.333,0,1,1,0,4.665Zm.6,2.912a.516.516,0,1,0,.516.516A.517.517,0,0,0,63.962,72.208Z" transform="translate(-53.5 -57.879)" fill="#7fe3c4"/>
  <path id="Path_15629" data-name="Path 15629" d="M169.044,1.06h-.94a2.087,2.087,0,0,0-3.634,0h-.94a.53.53,0,0,0-.53.53V3.216a.53.53,0,0,0,.53.53h5.514a.53.53,0,0,0,.53-.53V1.59A.53.53,0,0,0,169.044,1.06Z" transform="translate(-159.13)" fill="#7fe3c4"/>
</svg>
